<svg width="180" height="61" viewBox="0 0 180 61" fill="none" xmlns="http://www.w3.org/2000/svg">
<path d="M81.399 53.8501H79.3263L75.0965 49.098H79.5684V44.3459H74.2832V53.8474H72.6566V45.9063L74.0792 44.3459H72.6566V42.7609H79.7724C80.1505 42.7609 80.4851 42.9186 80.768 43.2367C81.0536 43.552 81.195 43.9245 81.195 44.3459V48.644C81.195 49.851 80.7217 50.4546 79.7724 50.4546H78.5538V50.7047L81.399 53.8501Z" fill="#DC9600"/>
<path d="M89.0235 53.8501H81.9077V45.9308L83.3303 44.3459H81.9077V42.7609H89.0235V44.3459H83.5343V48.8696L84.7529 47.513H89.0235V49.098H83.5343V52.2652H89.0235V53.8501Z" fill="#DC9600"/>
<path d="M95.4266 44.3486H92.478V53.8501H90.8514V44.3486H87.9028V42.7637H95.4239V44.3486H95.4266Z" fill="#DC9600"/>
<path d="M103.356 52.2679C103.356 52.7056 103.217 53.0781 102.94 53.388C102.662 53.6979 102.328 53.8529 101.933 53.8529H96.2399C95.8455 53.8529 95.5109 53.6979 95.2335 53.388C94.956 53.0781 94.8173 52.7056 94.8173 52.2679V44.3486C94.8173 43.9109 94.956 43.5385 95.2335 43.2286C95.5109 42.9186 95.8455 42.7637 96.2399 42.7637H101.933C102.325 42.7637 102.662 42.9186 102.94 43.2286C103.217 43.5385 103.356 43.9109 103.356 44.3486V52.2679ZM101.729 52.2679V44.3486H96.4439V52.2679H101.729Z" fill="#DC9600"/>
<path d="M113.012 53.8501H111.385V52.4936L110.167 53.8501H105.896C105.502 53.8501 105.167 53.6952 104.89 53.3853C104.612 53.0753 104.474 52.7029 104.474 52.2652V42.7637H106.1V52.2652H111.385V42.7637H113.012V53.8501Z" fill="#DC9600"/>
<path d="M122.668 52.2679C122.668 52.7056 122.53 53.0781 122.252 53.388C121.975 53.6979 121.64 53.8529 121.246 53.8529H115.553C115.158 53.8529 114.824 53.6979 114.546 53.388C114.269 53.0781 114.13 52.7056 114.13 52.2679V44.3486C114.13 43.9109 114.269 43.5385 114.546 43.2286C114.824 42.9186 115.158 42.7637 115.553 42.7637H121.246C121.637 42.7637 121.975 42.9186 122.252 43.2286C122.53 43.5385 122.668 43.9109 122.668 44.3486V45.9336H121.042V44.3486H115.757V52.2679H121.042V50.683H122.668V52.2679Z" fill="#DC9600"/>
<path d="M131.819 53.8501H130.192V49.098H124.907V53.8501H123.28V42.7637H124.907V48.8724L126.126 47.5158H130.192V42.7637H131.819V53.8501Z" fill="#DC9600"/>
<path d="M144.829 53.8501H143.202V49.098H137.917V53.8501H136.291V42.7637H137.917V48.8724L139.136 47.5158H143.202V42.7637H144.829V53.8501Z" fill="#DC9600"/>
<path d="M154.485 52.2679C154.485 52.7056 154.347 53.0781 154.069 53.388C153.792 53.6979 153.457 53.8529 153.063 53.8529H147.37C146.975 53.8529 146.641 53.6979 146.363 53.388C146.086 53.0781 145.947 52.7056 145.947 52.2679V44.3486C145.947 43.9109 146.086 43.5385 146.363 43.2286C146.641 42.9186 146.975 42.7637 147.37 42.7637H153.063C153.455 42.7637 153.792 42.9186 154.069 43.2286C154.347 43.5385 154.485 43.9109 154.485 44.3486V52.2679ZM152.859 52.2679V44.3486H147.574V52.2679H152.859Z" fill="#DC9600"/>
<path d="M164.145 53.8501H162.518V52.4936L161.299 53.8501H157.029C156.634 53.8501 156.3 53.6952 156.022 53.3853C155.745 53.0753 155.606 52.7029 155.606 52.2652V42.7637H157.233V52.2652H162.518V42.7637H164.145V53.8501Z" fill="#DC9600"/>
<path d="M172.071 52.2679C172.071 52.7056 171.932 53.0781 171.655 53.388C171.377 53.6979 171.04 53.8529 170.648 53.8529H164.955V52.2679H170.444V49.1007H166.378C165.983 49.1007 165.649 48.9458 165.371 48.6359C165.094 48.3259 164.955 47.9535 164.955 47.5158V44.3486C164.955 43.9109 165.094 43.5385 165.371 43.2286C165.649 42.9186 165.983 42.7637 166.378 42.7637H172.071V44.3486H166.582V47.5158H170.648C171.04 47.5158 171.377 47.6707 171.655 47.9807C171.932 48.2906 172.071 48.663 172.071 49.1007V52.2679Z" fill="#DC9600"/>
<path d="M180 53.8501H172.884V45.9308L174.307 44.3459H172.884V42.7609H180V44.3459H174.511V48.8696L175.729 47.513H180V49.098H174.511V52.2652H180V53.8501Z" fill="#DC9600"/>
<path d="M99.3354 24.0896C99.3354 25.264 98.8947 26.2916 98.0134 27.1752C97.1321 28.056 96.1012 28.4964 94.9261 28.4964H77.9228V37.3074H72.8851V15.2759L77.2944 10.869H72.8851V6.46216H94.9288C96.1039 6.46216 97.1321 6.90257 98.0162 7.7834C98.8975 8.66423 99.3381 9.69458 99.3381 10.869V24.0896H99.3354ZM94.2978 24.0896V10.8717H77.9228V27.8657L81.701 24.0896H94.2978Z" fill="#DC9600"/>
<path d="M140.714 37.3074H134.289L121.189 24.0896H135.045V10.8717H118.67V37.3074H113.632V15.2133L118.042 10.869H113.632V6.46216H135.676C136.851 6.46216 137.879 6.90257 138.763 7.7834C139.645 8.66423 140.085 9.69458 140.085 10.869V22.8281C140.085 26.1856 138.616 27.863 135.676 27.863H131.898V28.5562L140.714 37.3074Z" fill="#DC9600"/>
<path d="M179.886 32.9006C179.886 34.1185 179.456 35.157 178.594 36.0161C177.731 36.8779 176.692 37.3074 175.476 37.3074H157.842C156.623 37.3074 155.584 36.8779 154.725 36.0161C153.863 35.157 153.433 34.1185 153.433 32.9006V10.869C153.433 9.65108 153.863 8.61257 154.725 7.75349C155.584 6.89442 156.623 6.46216 157.842 6.46216H175.476C176.695 6.46216 177.734 6.8917 178.594 7.75349C179.453 8.61529 179.886 9.6538 179.886 10.869V32.9006ZM174.848 32.9006V10.869H158.473V32.9006H174.848Z" fill="#DC9600"/>
<path d="M61.0364 12.8182V48.1818C61.0364 55.2311 55.2643 61 48.2111 61H12.8253C5.76933 61 0 55.2311 0 48.1818V12.8182C0 5.76888 5.76933 9.60017e-07 12.8253 9.60017e-07H48.2084C55.2616 -0.00271764 61.0364 5.76888 61.0364 12.8182Z" fill="#2B434C"/>
<path d="M17.9064 26.955C17.9064 31.5195 20.1233 35.5648 23.5425 38.074V52.015H10.3255V13.1608H23.5425V15.8332C20.1233 18.3424 17.9064 22.3877 17.9064 26.955Z" fill="#DC9600"/>
<path d="M23.5425 15.8331V38.074C20.1206 35.5647 17.9064 31.5195 17.9064 26.9549C17.9064 22.3904 20.1233 18.3424 23.5425 15.8331Z" fill="#CCAA06"/>
<path d="M45.5073 26.9549C45.5073 34.5752 39.33 40.7491 31.7055 40.7491C28.6508 40.7491 25.8274 39.7595 23.5425 38.0767V15.8358C25.8274 14.153 28.6508 13.1635 31.7055 13.1635C33.6504 13.1635 35.5 13.5631 37.1784 14.289C37.0614 14.7865 36.9988 15.303 36.9988 15.8358C36.9988 19.6174 40.0698 22.6813 43.8535 22.6813C44.1799 22.6813 44.4981 22.6568 44.811 22.616C45.2625 23.978 45.5073 25.4379 45.5073 26.9549Z" fill="#F5D800"/>
<path d="M44.8137 22.6133C44.5036 22.6568 44.1826 22.6786 43.8562 22.6786C40.0725 22.6786 37.0015 19.612 37.0015 15.8331C37.0015 15.3003 37.0641 14.7838 37.1811 14.2863C40.7689 15.8386 43.5733 18.8671 44.8137 22.6133Z" fill="#285172"/>
<path d="M50.7109 15.8331C50.7109 19.2912 48.1458 22.1457 44.8137 22.6133C43.5733 18.8671 40.7716 15.8358 37.1811 14.2862C37.8802 11.2468 40.6057 8.98224 43.8562 8.98224C47.6399 8.98224 50.7109 12.0488 50.7109 15.8331Z" fill="#37669E"/>
<path d="M48.5266 43.1605C48.5756 43.4079 48.6028 43.6607 48.6028 43.9217C48.6028 46.0151 46.9054 47.7115 44.811 47.7115C43.9079 47.7115 43.0783 47.3934 42.4282 46.866C42.7818 48.5923 44.3105 49.8918 46.1411 49.8918C48.2356 49.8918 49.9329 48.1954 49.9329 46.102C49.9329 44.914 49.3835 43.8538 48.5266 43.1605Z" fill="#DC9600"/>
<path d="M46.1438 42.315C47.0469 42.315 47.8765 42.6331 48.5266 43.1605C48.173 41.4342 46.6443 40.1347 44.8137 40.1347C42.7192 40.1347 41.0219 41.8311 41.0219 43.9244C41.0219 45.1125 41.5713 46.1727 42.4281 46.8687C42.3792 46.6213 42.352 46.3685 42.352 46.1075C42.352 44.0114 44.0493 42.315 46.1438 42.315Z" fill="#F5D800"/>
<path d="M48.6028 43.9218C48.6028 43.6608 48.5756 43.4052 48.5266 43.1605C47.8765 42.6331 47.0469 42.3151 46.1438 42.3151C44.0493 42.3151 42.352 44.0115 42.352 46.1048C42.352 46.3658 42.3792 46.6213 42.4282 46.866C43.0783 47.3934 43.9079 47.7115 44.811 47.7115C46.9054 47.7115 48.6028 46.0151 48.6028 43.9218Z" fill="#D3B005"/>
</svg>
